<svg id="Layer_1" data-name="Layer 1" xmlns="http://www.w3.org/2000/svg" viewBox="0 0 414.84 450.24"><defs><style>.cls-1{fill:#fff;}</style></defs><title>u-turn</title><g id="Page-1"><g id="_004---Uturn-Arrow" data-name="004---Uturn-Arrow"><path id="Shape" class="cls-1" d="M441.79,39.41H353.52a8.85,8.85,0,0,0-8.83,8.83V313.09A70.54,70.54,0,0,1,269,383.53a72.47,72.47,0,0,1-65.59-73.18V207.16h53a8.71,8.71,0,0,0,7.15-13.77L157.37,43.05a8.84,8.84,0,0,0-14.3,0L37.4,193.39a8.71,8.71,0,0,0,7.15,13.77h53V313.09A176.64,176.64,0,0,0,276.36,489.64c97.37-1.24,174.26-83.77,174.26-181.14V48.24a8.85,8.85,0,0,0-8.83-8.83Z" transform="translate(-35.78 -39.41)"/></g></g></svg>